# xmcd
#
# Track frame offsets:
#	150
#	20000
#	35575
#	52623
#	73659
#	97170
#	121542
#	137307
#	156292
#	175055
#	190270
#
# Disc length: 2758 seconds
#
# Revision: 2
# Processed by: cddbd v1.5.2PL0 Copyright (c) Steve Scherf et al.
# Submitted via: audiograbber 1.83.01
#
DISCID=890ac40b
DTITLE=k.d. lang and the Siss Boom Bang - Sing It Loud
DYEAR=2011
DGENRE=Pop
TTITLE0=I Confess
TTITLE1=A Sleep With No Dreaming
TTITLE2=The Water's Edge
TTITLE3=Perfect Word
TTITLE4=Sugar Buzz
TTITLE5=Sing It Loud
TTITLE6=Inglewood
TTITLE7=Habit Of Mind
TTITLE8=Heaven
TTITLE9=Sorrow Nevermore
TTITLE10=Reminiscing
EXTD=
EXTT0=
EXTT1=
EXTT2=
EXTT3=
EXTT4=
EXTT5=
EXTT6=
EXTT7=
EXTT8=
EXTT9=
EXTT10=
PLAYORDER=
